<svg width="60" height="60" viewBox="0 0 60 60" fill="none" xmlns="http://www.w3.org/2000/svg">
<path fill-rule="evenodd" clip-rule="evenodd" d="M39.0815 0C45.105 0 48.116 0 51.3585 1.025C54.8985 2.3135 57.6865 5.1015 58.975 8.6415C60 11.8835 60 14.8955 60 20.9185V39.0815C60 45.105 60 48.116 58.975 51.3585C57.6865 54.8985 54.8985 57.6865 51.3585 58.9745C48.116 60 45.105 60 39.0815 60H20.9185C14.895 60 11.8835 60 8.6415 58.9745C5.1015 57.6865 2.3135 54.8985 1.025 51.3585C0 48.116 0 45.105 0 39.0815V20.9185C0 14.8955 0 11.8835 1.025 8.6415C2.3135 5.1015 5.1015 2.3135 8.6415 1.025C11.8835 0 14.895 0 20.9185 0H39.0815Z" fill="url(#paint0_linear_2_5792)"/>
<path d="M44.9003 30.3729C44.9003 38.611 38.222 45.2893 29.9839 45.2893C21.7458 45.2893 15.0674 38.611 15.0674 30.3729C15.0674 22.1348 21.7458 15.4565 29.9839 15.4565C38.222 15.4565 44.9003 22.1348 44.9003 30.3729Z" stroke="white" stroke-width="1.92786"/>
<path d="M48.5116 33.5263C39.8722 25.3312 27.3324 19.3505 22.1424 17.3845L21.6196 17.1721L20.1655 18.5772L20.6393 18.7242C34.3892 23.887 45.2331 32.3881 48.9364 35.9933C49.1586 34.5294 48.7458 33.7386 48.5116 33.5263Z" fill="white"/>
<path d="M43.7932 41.0809C35.3048 32.6226 22.8763 26.3374 17.7231 24.2521L17.2042 24.0275L15.7247 25.4248L16.1958 25.5823C29.8491 31.0606 40.5361 39.8687 44.1729 43.588C44.4218 42.1089 44.0235 41.3003 43.7932 41.0809Z" fill="white"/>
<path d="M47.4702 38.4406C38.2967 29.4204 24.9816 22.8374 19.4708 20.6735L18.9157 20.4397L17.3717 21.9862L17.8748 22.1481C32.4747 27.8307 43.9891 37.1878 47.9212 41.156C48.1572 39.5447 47.7188 38.6744 47.4702 38.4406Z" fill="white"/>
<path d="M11.4884 33.5263C20.1278 25.3312 32.6676 19.3505 37.8576 17.3845L38.3804 17.1721L39.8345 18.5772L39.3607 18.7242C25.6108 23.887 14.7669 32.3881 11.0636 35.9933C10.8414 34.5294 11.2542 33.7386 11.4884 33.5263Z" fill="white"/>
<path d="M16.2068 41.0809C24.6952 32.6226 37.1237 26.3374 42.277 24.2521L42.7958 24.0275L44.2753 25.4248L43.8042 25.5823C30.1509 31.0606 19.4639 39.8687 15.8271 43.588C15.5782 42.1089 15.9765 41.3003 16.2068 41.0809Z" fill="white"/>
<path d="M12.5298 38.4406C21.7033 29.4204 35.0184 22.8374 40.5292 20.6735L41.0843 20.4397L42.6283 21.9862L42.1252 22.1481C27.5253 27.8307 16.0109 37.1878 12.0788 41.156C11.8428 39.5447 12.2812 38.6744 12.5298 38.4406Z" fill="white"/>
<defs>
<linearGradient id="paint0_linear_2_5792" x1="-18" y1="-23.5" x2="85.9011" y2="88.5917" gradientUnits="userSpaceOnUse">
<stop stop-color="#FF8933"/>
<stop offset="0.383851" stop-color="#FF6B00"/>
<stop offset="0.935" stop-color="#FFB800"/>
</linearGradient>
</defs>
</svg>
